# xmcd
# 
# Track frame offsets:
#     150
#     26926
#     51826
#     80252
#     94953
#     109803
#     135679
#     151804
#     167555
#     186005
#     207605
#     229805
#     254106
#     272032
# 
# Disc length: 4034
# 
# Revision: 3
# Processed by: cddbd v1.5.2PL0 Copyright (c) Steve Scherf et al.
# Submitted via: fre:ac v1.0.17
# 
DISCID=c80fc00e
DTITLE=Eddie Higgins - If Dreams Come True
DYEAR=2004
DGENRE=Jazz
TTITLE0=If Dreams Come True
TTITLE1=Summertime
TTITLE2=It's All Right with Me
TTITLE3=Moon and Sand
TTITLE4=Minor Swing
TTITLE5=I Will Wait for You
TTITLE6=A Weekend in Havana
TTITLE7=Into The Memory
TTITLE8=St Louis Blues
TTITLE9=Shinjuku Twilight
TTITLE10=Frenesi
TTITLE11=Nightingale
TTITLE12=Caravan
TTITLE13=The Days of Wine and Roses
EXTD=YEAR: 2004
EXTT0=
EXTT1=
EXTT2=
EXTT3=
EXTT4=
EXTT5=
EXTT6=
EXTT7=
EXTT8=
EXTT9=
EXTT10=
EXTT11=
EXTT12=
EXTT13=
PLAYORDER=
